<?xml version="1.0" encoding="utf-8" standalone="no"?>
<!DOCTYPE svg PUBLIC "-//W3C//DTD SVG 1.1//EN"
  "http://www.w3.org/Graphics/SVG/1.1/DTD/svg11.dtd">
<!-- Created with matplotlib (https://matplotlib.org/) -->
<svg height="436.196562pt" version="1.1" viewBox="0 0 609.403125 436.196562" width="609.403125pt" xmlns="http://www.w3.org/2000/svg" xmlns:xlink="http://www.w3.org/1999/xlink">
 <metadata>
  <rdf:RDF xmlns:cc="http://creativecommons.org/ns#" xmlns:dc="http://purl.org/dc/elements/1.1/" xmlns:rdf="http://www.w3.org/1999/02/22-rdf-syntax-ns#">
   <cc:Work>
    <dc:type rdf:resource="http://purl.org/dc/dcmitype/StillImage"/>
    <dc:date>2021-08-12T08:52:35.494722</dc:date>
    <dc:format>image/svg+xml</dc:format>
    <dc:creator>
     <cc:Agent>
      <dc:title>Matplotlib v3.3.4, https://matplotlib.org/</dc:title>
     </cc:Agent>
    </dc:creator>
   </cc:Work>
  </rdf:RDF>
 </metadata>
 <defs>
  <style type="text/css">*{stroke-linecap:butt;stroke-linejoin:round;}</style>
 </defs>
 <g id="figure_1">
  <g id="patch_1">
   <path d="M 0 436.196562 
L 609.403125 436.196562 
L 609.403125 0 
L 0 0 
z
" style="fill:none;"/>
  </g>
  <g id="axes_1">
   <g id="patch_2">
    <path d="M 44.203125 398.318437 
L 602.203125 398.318437 
L 602.203125 17.798437 
L 44.203125 17.798437 
z
" style="fill:#ffffff;"/>
   </g>
   <g id="matplotlib.axis_1">
    <g id="xtick_1">
     <g id="line2d_1">
      <defs>
       <path d="M 0 0 
L 0 3.5 
" id="mb8e9451a89" style="stroke:#000000;stroke-width:0.8;"/>
      </defs>
      <g>
       <use style="stroke:#000000;stroke-width:0.8;" x="105.800528" xlink:href="#mb8e9451a89" y="398.318437"/>
      </g>
     </g>
     <g id="text_1">
      <!-- 306 -->
      <g transform="translate(96.256778 412.916875)scale(0.1 -0.1)">
       <defs>
        <path d="M 40.578125 39.3125 
Q 47.65625 37.796875 51.625 33 
Q 55.609375 28.21875 55.609375 21.1875 
Q 55.609375 10.40625 48.1875 4.484375 
Q 40.765625 -1.421875 27.09375 -1.421875 
Q 22.515625 -1.421875 17.65625 -0.515625 
Q 12.796875 0.390625 7.625 2.203125 
L 7.625 11.71875 
Q 11.71875 9.328125 16.59375 8.109375 
Q 21.484375 6.890625 26.8125 6.890625 
Q 36.078125 6.890625 40.9375 10.546875 
Q 45.796875 14.203125 45.796875 21.1875 
Q 45.796875 27.640625 41.28125 31.265625 
Q 36.765625 34.90625 28.71875 34.90625 
L 20.21875 34.90625 
L 20.21875 43.015625 
L 29.109375 43.015625 
Q 36.375 43.015625 40.234375 45.921875 
Q 44.09375 48.828125 44.09375 54.296875 
Q 44.09375 59.90625 40.109375 62.90625 
Q 36.140625 65.921875 28.71875 65.921875 
Q 24.65625 65.921875 20.015625 65.03125 
Q 15.375 64.15625 9.8125 62.3125 
L 9.8125 71.09375 
Q 15.4375 72.65625 20.34375 73.4375 
Q 25.25 74.21875 29.59375 74.21875 
Q 40.828125 74.21875 47.359375 69.109375 
Q 53.90625 64.015625 53.90625 55.328125 
Q 53.90625 49.265625 50.4375 45.09375 
Q 46.96875 40.921875 40.578125 39.3125 
z
" id="DejaVuSans-51"/>
        <path d="M 31.78125 66.40625 
Q 24.171875 66.40625 20.328125 58.90625 
Q 16.5 51.421875 16.5 36.375 
Q 16.5 21.390625 20.328125 13.890625 
Q 24.171875 6.390625 31.78125 6.390625 
Q 39.453125 6.390625 43.28125 13.890625 
Q 47.125 21.390625 47.125 36.375 
Q 47.125 51.421875 43.28125 58.90625 
Q 39.453125 66.40625 31.78125 66.40625 
z
M 31.78125 74.21875 
Q 44.046875 74.21875 50.515625 64.515625 
Q 56.984375 54.828125 56.984375 36.375 
Q 56.984375 17.96875 50.515625 8.265625 
Q 44.046875 -1.421875 31.78125 -1.421875 
Q 19.53125 -1.421875 13.0625 8.265625 
Q 6.59375 17.96875 6.59375 36.375 
Q 6.59375 54.828125 13.0625 64.515625 
Q 19.53125 74.21875 31.78125 74.21875 
z
" id="DejaVuSans-48"/>
        <path d="M 33.015625 40.375 
Q 26.375 40.375 22.484375 35.828125 
Q 18.609375 31.296875 18.609375 23.390625 
Q 18.609375 15.53125 22.484375 10.953125 
Q 26.375 6.390625 33.015625 6.390625 
Q 39.65625 6.390625 43.53125 10.953125 
Q 47.40625 15.53125 47.40625 23.390625 
Q 47.40625 31.296875 43.53125 35.828125 
Q 39.65625 40.375 33.015625 40.375 
z
M 52.59375 71.296875 
L 52.59375 62.3125 
Q 48.875 64.0625 45.09375 64.984375 
Q 41.3125 65.921875 37.59375 65.921875 
Q 27.828125 65.921875 22.671875 59.328125 
Q 17.53125 52.734375 16.796875 39.40625 
Q 19.671875 43.65625 24.015625 45.921875 
Q 28.375 48.1875 33.59375 48.1875 
Q 44.578125 48.1875 50.953125 41.515625 
Q 57.328125 34.859375 57.328125 23.390625 
Q 57.328125 12.15625 50.6875 5.359375 
Q 44.046875 -1.421875 33.015625 -1.421875 
Q 20.359375 -1.421875 13.671875 8.265625 
Q 6.984375 17.96875 6.984375 36.375 
Q 6.984375 53.65625 15.1875 63.9375 
Q 23.390625 74.21875 37.203125 74.21875 
Q 40.921875 74.21875 44.703125 73.484375 
Q 48.484375 72.75 52.59375 71.296875 
z
" id="DejaVuSans-54"/>
       </defs>
       <use xlink:href="#DejaVuSans-51"/>
       <use x="63.623047" xlink:href="#DejaVuSans-48"/>
       <use x="127.246094" xlink:href="#DejaVuSans-54"/>
      </g>
     </g>
    </g>
    <g id="xtick_2">
     <g id="line2d_2">
      <g>
       <use style="stroke:#000000;stroke-width:0.8;" x="178.26806" xlink:href="#mb8e9451a89" y="398.318437"/>
      </g>
     </g>
     <g id="text_2">
      <!-- 308 -->
      <g transform="translate(168.72431 412.916875)scale(0.1 -0.1)">
       <defs>
        <path d="M 31.78125 34.625 
Q 24.75 34.625 20.71875 30.859375 
Q 16.703125 27.09375 16.703125 20.515625 
Q 16.703125 13.921875 20.71875 10.15625 
Q 24.75 6.390625 31.78125 6.390625 
Q 38.8125 6.390625 42.859375 10.171875 
Q 46.921875 13.96875 46.921875 20.515625 
Q 46.921875 27.09375 42.890625 30.859375 
Q 38.875 34.625 31.78125 34.625 
z
M 21.921875 38.8125 
Q 15.578125 40.375 12.03125 44.71875 
Q 8.5 49.078125 8.5 55.328125 
Q 8.5 64.0625 14.71875 69.140625 
Q 20.953125 74.21875 31.78125 74.21875 
Q 42.671875 74.21875 48.875 69.140625 
Q 55.078125 64.0625 55.078125 55.328125 
Q 55.078125 49.078125 51.53125 44.71875 
Q 48 40.375 41.703125 38.8125 
Q 48.828125 37.15625 52.796875 32.3125 
Q 56.78125 27.484375 56.78125 20.515625 
Q 56.78125 9.90625 50.3125 4.234375 
Q 43.84375 -1.421875 31.78125 -1.421875 
Q 19.734375 -1.421875 13.25 4.234375 
Q 6.78125 9.90625 6.78125 20.515625 
Q 6.78125 27.484375 10.78125 32.3125 
Q 14.796875 37.15625 21.921875 38.8125 
z
M 18.3125 54.390625 
Q 18.3125 48.734375 21.84375 45.5625 
Q 25.390625 42.390625 31.78125 42.390625 
Q 38.140625 42.390625 41.71875 45.5625 
Q 45.3125 48.734375 45.3125 54.390625 
Q 45.3125 60.0625 41.71875 63.234375 
Q 38.140625 66.40625 31.78125 66.40625 
Q 25.390625 66.40625 21.84375 63.234375 
Q 18.3125 60.0625 18.3125 54.390625 
z
" id="DejaVuSans-56"/>
       </defs>
       <use xlink:href="#DejaVuSans-51"/>
       <use x="63.623047" xlink:href="#DejaVuSans-48"/>
       <use x="127.246094" xlink:href="#DejaVuSans-56"/>
      </g>
     </g>
    </g>
    <g id="xtick_3">
     <g id="line2d_3">
      <g>
       <use style="stroke:#000000;stroke-width:0.8;" x="250.735593" xlink:href="#mb8e9451a89" y="398.318437"/>
      </g>
     </g>
     <g id="text_3">
      <!-- 310 -->
      <g transform="translate(241.191843 412.916875)scale(0.1 -0.1)">
       <defs>
        <path d="M 12.40625 8.296875 
L 28.515625 8.296875 
L 28.515625 63.921875 
L 10.984375 60.40625 
L 10.984375 69.390625 
L 28.421875 72.90625 
L 38.28125 72.90625 
L 38.28125 8.296875 
L 54.390625 8.296875 
L 54.390625 0 
L 12.40625 0 
z
" id="DejaVuSans-49"/>
       </defs>
       <use xlink:href="#DejaVuSans-51"/>
       <use x="63.623047" xlink:href="#DejaVuSans-49"/>
       <use x="127.246094" xlink:href="#DejaVuSans-48"/>
      </g>
     </g>
    </g>
    <g id="xtick_4">
     <g id="line2d_4">
      <g>
       <use style="stroke:#000000;stroke-width:0.8;" x="323.203125" xlink:href="#mb8e9451a89" y="398.318437"/>
      </g>
     </g>
     <g id="text_4">
      <!-- 312 -->
      <g transform="translate(313.659375 412.916875)scale(0.1 -0.1)">
       <defs>
        <path d="M 19.1875 8.296875 
L 53.609375 8.296875 
L 53.609375 0 
L 7.328125 0 
L 7.328125 8.296875 
Q 12.9375 14.109375 22.625 23.890625 
Q 32.328125 33.6875 34.8125 36.53125 
Q 39.546875 41.84375 41.421875 45.53125 
Q 43.3125 49.21875 43.3125 52.78125 
Q 43.3125 58.59375 39.234375 62.25 
Q 35.15625 65.921875 28.609375 65.921875 
Q 23.96875 65.921875 18.8125 64.3125 
Q 13.671875 62.703125 7.8125 59.421875 
L 7.8125 69.390625 
Q 13.765625 71.78125 18.9375 73 
Q 24.125 74.21875 28.421875 74.21875 
Q 39.75 74.21875 46.484375 68.546875 
Q 53.21875 62.890625 53.21875 53.421875 
Q 53.21875 48.921875 51.53125 44.890625 
Q 49.859375 40.875 45.40625 35.40625 
Q 44.1875 33.984375 37.640625 27.21875 
Q 31.109375 20.453125 19.1875 8.296875 
z
" id="DejaVuSans-50"/>
       </defs>
       <use xlink:href="#DejaVuSans-51"/>
       <use x="63.623047" xlink:href="#DejaVuSans-49"/>
       <use x="127.246094" xlink:href="#DejaVuSans-50"/>
      </g>
     </g>
    </g>
    <g id="xtick_5">
     <g id="line2d_5">
      <g>
       <use style="stroke:#000000;stroke-width:0.8;" x="395.670657" xlink:href="#mb8e9451a89" y="398.318437"/>
      </g>
     </g>
     <g id="text_5">
      <!-- 314 -->
      <g transform="translate(386.126907 412.916875)scale(0.1 -0.1)">
       <defs>
        <path d="M 37.796875 64.3125 
L 12.890625 25.390625 
L 37.796875 25.390625 
z
M 35.203125 72.90625 
L 47.609375 72.90625 
L 47.609375 25.390625 
L 58.015625 25.390625 
L 58.015625 17.1875 
L 47.609375 17.1875 
L 47.609375 0 
L 37.796875 0 
L 37.796875 17.1875 
L 4.890625 17.1875 
L 4.890625 26.703125 
z
" id="DejaVuSans-52"/>
       </defs>
       <use xlink:href="#DejaVuSans-51"/>
       <use x="63.623047" xlink:href="#DejaVuSans-49"/>
       <use x="127.246094" xlink:href="#DejaVuSans-52"/>
      </g>
     </g>
    </g>
    <g id="xtick_6">
     <g id="line2d_6">
      <g>
       <use style="stroke:#000000;stroke-width:0.8;" x="468.13819" xlink:href="#mb8e9451a89" y="398.318437"/>
      </g>
     </g>
     <g id="text_6">
      <!-- 316 -->
      <g transform="translate(458.59444 412.916875)scale(0.1 -0.1)">
       <use xlink:href="#DejaVuSans-51"/>
       <use x="63.623047" xlink:href="#DejaVuSans-49"/>
       <use x="127.246094" xlink:href="#DejaVuSans-54"/>
      </g>
     </g>
    </g>
    <g id="xtick_7">
     <g id="line2d_7">
      <g>
       <use style="stroke:#000000;stroke-width:0.8;" x="540.605722" xlink:href="#mb8e9451a89" y="398.318437"/>
      </g>
     </g>
     <g id="text_7">
      <!-- 318 -->
      <g transform="translate(531.061972 412.916875)scale(0.1 -0.1)">
       <use xlink:href="#DejaVuSans-51"/>
       <use x="63.623047" xlink:href="#DejaVuSans-49"/>
       <use x="127.246094" xlink:href="#DejaVuSans-56"/>
      </g>
     </g>
    </g>
    <g id="text_8">
     <!-- Wavenumber $/cm^{-1}$ -->
     <g transform="translate(273.203125 426.916875)scale(0.1 -0.1)">
      <defs>
       <path d="M 3.328125 72.90625 
L 13.28125 72.90625 
L 28.609375 11.28125 
L 43.890625 72.90625 
L 54.984375 72.90625 
L 70.3125 11.28125 
L 85.59375 72.90625 
L 95.609375 72.90625 
L 77.296875 0 
L 64.890625 0 
L 49.515625 63.28125 
L 33.984375 0 
L 21.578125 0 
z
" id="DejaVuSans-87"/>
       <path d="M 34.28125 27.484375 
Q 23.390625 27.484375 19.1875 25 
Q 14.984375 22.515625 14.984375 16.5 
Q 14.984375 11.71875 18.140625 8.90625 
Q 21.296875 6.109375 26.703125 6.109375 
Q 34.1875 6.109375 38.703125 11.40625 
Q 43.21875 16.703125 43.21875 25.484375 
L 43.21875 27.484375 
z
M 52.203125 31.203125 
L 52.203125 0 
L 43.21875 0 
L 43.21875 8.296875 
Q 40.140625 3.328125 35.546875 0.953125 
Q 30.953125 -1.421875 24.3125 -1.421875 
Q 15.921875 -1.421875 10.953125 3.296875 
Q 6 8.015625 6 15.921875 
Q 6 25.140625 12.171875 29.828125 
Q 18.359375 34.515625 30.609375 34.515625 
L 43.21875 34.515625 
L 43.21875 35.40625 
Q 43.21875 41.609375 39.140625 45 
Q 35.0625 48.390625 27.6875 48.390625 
Q 23 48.390625 18.546875 47.265625 
Q 14.109375 46.140625 10.015625 43.890625 
L 10.015625 52.203125 
Q 14.9375 54.109375 19.578125 55.046875 
Q 24.21875 56 28.609375 56 
Q 40.484375 56 46.34375 49.84375 
Q 52.203125 43.703125 52.203125 31.203125 
z
" id="DejaVuSans-97"/>
       <path d="M 2.984375 54.6875 
L 12.5 54.6875 
L 29.59375 8.796875 
L 46.6875 54.6875 
L 56.203125 54.6875 
L 35.6875 0 
L 23.484375 0 
z
" id="DejaVuSans-118"/>
       <path d="M 56.203125 29.59375 
L 56.203125 25.203125 
L 14.890625 25.203125 
Q 15.484375 15.921875 20.484375 11.0625 
Q 25.484375 6.203125 34.421875 6.203125 
Q 39.59375 6.203125 44.453125 7.46875 
Q 49.3125 8.734375 54.109375 11.28125 
L 54.109375 2.78125 
Q 49.265625 0.734375 44.1875 -0.34375 
Q 39.109375 -1.421875 33.890625 -1.421875 
Q 20.796875 -1.421875 13.15625 6.1875 
Q 5.515625 13.8125 5.515625 26.8125 
Q 5.515625 40.234375 12.765625 48.109375 
Q 20.015625 56 32.328125 56 
Q 43.359375 56 49.78125 48.890625 
Q 56.203125 41.796875 56.203125 29.59375 
z
M 47.21875 32.234375 
Q 47.125 39.59375 43.09375 43.984375 
Q 39.0625 48.390625 32.421875 48.390625 
Q 24.90625 48.390625 20.390625 44.140625 
Q 15.875 39.890625 15.1875 32.171875 
z
" id="DejaVuSans-101"/>
       <path d="M 54.890625 33.015625 
L 54.890625 0 
L 45.90625 0 
L 45.90625 32.71875 
Q 45.90625 40.484375 42.875 44.328125 
Q 39.84375 48.1875 33.796875 48.1875 
Q 26.515625 48.1875 22.3125 43.546875 
Q 18.109375 38.921875 18.109375 30.90625 
L 18.109375 0 
L 9.078125 0 
L 9.078125 54.6875 
L 18.109375 54.6875 
L 18.109375 46.1875 
Q 21.34375 51.125 25.703125 53.5625 
Q 30.078125 56 35.796875 56 
Q 45.21875 56 50.046875 50.171875 
Q 54.890625 44.34375 54.890625 33.015625 
z
" id="DejaVuSans-110"/>
       <path d="M 8.5 21.578125 
L 8.5 54.6875 
L 17.484375 54.6875 
L 17.484375 21.921875 
Q 17.484375 14.15625 20.5 10.265625 
Q 23.53125 6.390625 29.59375 6.390625 
Q 36.859375 6.390625 41.078125 11.03125 
Q 45.3125 15.671875 45.3125 23.6875 
L 45.3125 54.6875 
L 54.296875 54.6875 
L 54.296875 0 
L 45.3125 0 
L 45.3125 8.40625 
Q 42.046875 3.421875 37.71875 1 
Q 33.40625 -1.421875 27.6875 -1.421875 
Q 18.265625 -1.421875 13.375 4.4375 
Q 8.5 10.296875 8.5 21.578125 
z
M 31.109375 56 
z
" id="DejaVuSans-117"/>
       <path d="M 52 44.1875 
Q 55.375 50.25 60.0625 53.125 
Q 64.75 56 71.09375 56 
Q 79.640625 56 84.28125 50.015625 
Q 88.921875 44.046875 88.921875 33.015625 
L 88.921875 0 
L 79.890625 0 
L 79.890625 32.71875 
Q 79.890625 40.578125 77.09375 44.375 
Q 74.3125 48.1875 68.609375 48.1875 
Q 61.625 48.1875 57.5625 43.546875 
Q 53.515625 38.921875 53.515625 30.90625 
L 53.515625 0 
L 44.484375 0 
L 44.484375 32.71875 
Q 44.484375 40.625 41.703125 44.40625 
Q 38.921875 48.1875 33.109375 48.1875 
Q 26.21875 48.1875 22.15625 43.53125 
Q 18.109375 38.875 18.109375 30.90625 
L 18.109375 0 
L 9.078125 0 
L 9.078125 54.6875 
L 18.109375 54.6875 
L 18.109375 46.1875 
Q 21.1875 51.21875 25.484375 53.609375 
Q 29.78125 56 35.6875 56 
Q 41.65625 56 45.828125 52.96875 
Q 50 49.953125 52 44.1875 
z
" id="DejaVuSans-109"/>
       <path d="M 48.6875 27.296875 
Q 48.6875 37.203125 44.609375 42.84375 
Q 40.53125 48.484375 33.40625 48.484375 
Q 26.265625 48.484375 22.1875 42.84375 
Q 18.109375 37.203125 18.109375 27.296875 
Q 18.109375 17.390625 22.1875 11.75 
Q 26.265625 6.109375 33.40625 6.109375 
Q 40.53125 6.109375 44.609375 11.75 
Q 48.6875 17.390625 48.6875 27.296875 
z
M 18.109375 46.390625 
Q 20.953125 51.265625 25.265625 53.625 
Q 29.59375 56 35.59375 56 
Q 45.5625 56 51.78125 48.09375 
Q 58.015625 40.1875 58.015625 27.296875 
Q 58.015625 14.40625 51.78125 6.484375 
Q 45.5625 -1.421875 35.59375 -1.421875 
Q 29.59375 -1.421875 25.265625 0.953125 
Q 20.953125 3.328125 18.109375 8.203125 
L 18.109375 0 
L 9.078125 0 
L 9.078125 75.984375 
L 18.109375 75.984375 
z
" id="DejaVuSans-98"/>
       <path d="M 41.109375 46.296875 
Q 39.59375 47.171875 37.8125 47.578125 
Q 36.03125 48 33.890625 48 
Q 26.265625 48 22.1875 43.046875 
Q 18.109375 38.09375 18.109375 28.8125 
L 18.109375 0 
L 9.078125 0 
L 9.078125 54.6875 
L 18.109375 54.6875 
L 18.109375 46.1875 
Q 20.953125 51.171875 25.484375 53.578125 
Q 30.03125 56 36.53125 56 
Q 37.453125 56 38.578125 55.875 
Q 39.703125 55.765625 41.0625 55.515625 
z
" id="DejaVuSans-114"/>
       <path id="DejaVuSans-32"/>
       <path d="M 25.390625 72.90625 
L 33.6875 72.90625 
L 8.296875 -9.28125 
L 0 -9.28125 
z
" id="DejaVuSans-47"/>
       <path d="M 53.609375 52.59375 
L 51.8125 43.703125 
Q 48.578125 46.046875 44.9375 47.21875 
Q 41.3125 48.390625 37.40625 48.390625 
Q 33.109375 48.390625 29.21875 46.875 
Q 25.34375 45.359375 22.703125 42.578125 
Q 18.5 38.328125 16.203125 32.609375 
Q 13.921875 26.90625 13.921875 20.796875 
Q 13.921875 13.421875 17.609375 9.8125 
Q 21.296875 6.203125 28.8125 6.203125 
Q 32.515625 6.203125 36.6875 7.328125 
Q 40.875 8.453125 45.40625 10.6875 
L 43.703125 1.8125 
Q 39.796875 0.203125 35.671875 -0.609375 
Q 31.546875 -1.421875 27.203125 -1.421875 
Q 16.3125 -1.421875 10.453125 4.015625 
Q 4.59375 9.46875 4.59375 19.578125 
Q 4.59375 28.078125 7.640625 35.234375 
Q 10.6875 42.390625 16.703125 48.09375 
Q 20.796875 52 26.3125 54 
Q 31.84375 56 38.375 56 
Q 42.1875 56 45.9375 55.140625 
Q 49.703125 54.296875 53.609375 52.59375 
z
" id="DejaVuSans-Oblique-99"/>
       <path d="M 89.796875 33.015625 
L 83.40625 0 
L 74.421875 0 
L 80.71875 32.71875 
Q 81.109375 34.8125 81.296875 36.328125 
Q 81.5 37.84375 81.5 38.921875 
Q 81.5 43.3125 79.046875 45.75 
Q 76.609375 48.1875 72.21875 48.1875 
Q 65.671875 48.1875 60.546875 43.28125 
Q 55.421875 38.375 53.90625 30.515625 
L 47.90625 0 
L 38.921875 0 
L 45.3125 32.71875 
Q 45.703125 34.515625 45.890625 36.046875 
Q 46.09375 37.59375 46.09375 38.8125 
Q 46.09375 43.265625 43.65625 45.71875 
Q 41.21875 48.1875 36.921875 48.1875 
Q 30.28125 48.1875 25.140625 43.28125 
Q 20.015625 38.375 18.5 30.515625 
L 12.5 0 
L 3.515625 0 
L 14.203125 54.6875 
L 23.1875 54.6875 
L 21.484375 46.1875 
Q 25.140625 50.984375 30.046875 53.484375 
Q 34.96875 56 40.578125 56 
Q 46.53125 56 50.359375 52.875 
Q 54.203125 49.75 54.984375 44.1875 
Q 59.078125 49.953125 64.46875 52.96875 
Q 69.875 56 75.875 56 
Q 82.90625 56 86.734375 51.953125 
Q 90.578125 47.90625 90.578125 40.484375 
Q 90.578125 38.875 90.375 36.9375 
Q 90.1875 35.015625 89.796875 33.015625 
z
" id="DejaVuSans-Oblique-109"/>
       <path d="M 10.59375 35.5 
L 73.1875 35.5 
L 73.1875 27.203125 
L 10.59375 27.203125 
z
" id="DejaVuSans-8722"/>
      </defs>
      <use transform="translate(0 0.684375)" xlink:href="#DejaVuSans-87"/>
      <use transform="translate(98.876953 0.684375)" xlink:href="#DejaVuSans-97"/>
      <use transform="translate(160.15625 0.684375)" xlink:href="#DejaVuSans-118"/>
      <use transform="translate(219.335938 0.684375)" xlink:href="#DejaVuSans-101"/>
      <use transform="translate(280.859375 0.684375)" xlink:href="#DejaVuSans-110"/>
      <use transform="translate(344.238281 0.684375)" xlink:href="#DejaVuSans-117"/>
      <use transform="translate(407.617188 0.684375)" xlink:href="#DejaVuSans-109"/>
      <use transform="translate(505.029297 0.684375)" xlink:href="#DejaVuSans-98"/>
      <use transform="translate(568.505859 0.684375)" xlink:href="#DejaVuSans-101"/>
      <use transform="translate(630.029297 0.684375)" xlink:href="#DejaVuSans-114"/>
      <use transform="translate(671.142578 0.684375)" xlink:href="#DejaVuSans-32"/>
      <use transform="translate(702.929688 0.684375)" xlink:href="#DejaVuSans-47"/>
      <use transform="translate(736.621094 0.684375)" xlink:href="#DejaVuSans-Oblique-99"/>
      <use transform="translate(791.601562 0.684375)" xlink:href="#DejaVuSans-Oblique-109"/>
      <use transform="translate(893.663568 38.965625)scale(0.7)" xlink:href="#DejaVuSans-8722"/>
      <use transform="translate(952.315911 38.965625)scale(0.7)" xlink:href="#DejaVuSans-49"/>
     </g>
    </g>
   </g>
   <g id="matplotlib.axis_2">
    <g id="ytick_1">
     <g id="line2d_8">
      <defs>
       <path d="M 0 0 
L -3.5 0 
" id="mf06a79d11e" style="stroke:#000000;stroke-width:0.8;"/>
      </defs>
      <g>
       <use style="stroke:#000000;stroke-width:0.8;" x="44.203125" xlink:href="#mf06a79d11e" y="381.022074"/>
      </g>
     </g>
     <g id="text_9">
      <!-- 0.0 -->
      <g transform="translate(21.3 384.821293)scale(0.1 -0.1)">
       <defs>
        <path d="M 10.6875 12.40625 
L 21 12.40625 
L 21 0 
L 10.6875 0 
z
" id="DejaVuSans-46"/>
       </defs>
       <use xlink:href="#DejaVuSans-48"/>
       <use x="63.623047" xlink:href="#DejaVuSans-46"/>
       <use x="95.410156" xlink:href="#DejaVuSans-48"/>
      </g>
     </g>
    </g>
    <g id="ytick_2">
     <g id="line2d_9">
      <g>
       <use style="stroke:#000000;stroke-width:0.8;" x="44.203125" xlink:href="#mf06a79d11e" y="324.306632"/>
      </g>
     </g>
     <g id="text_10">
      <!-- 0.5 -->
      <g transform="translate(21.3 328.105851)scale(0.1 -0.1)">
       <defs>
        <path d="M 10.796875 72.90625 
L 49.515625 72.90625 
L 49.515625 64.59375 
L 19.828125 64.59375 
L 19.828125 46.734375 
Q 21.96875 47.46875 24.109375 47.828125 
Q 26.265625 48.1875 28.421875 48.1875 
Q 40.625 48.1875 47.75 41.5 
Q 54.890625 34.8125 54.890625 23.390625 
Q 54.890625 11.625 47.5625 5.09375 
Q 40.234375 -1.421875 26.90625 -1.421875 
Q 22.3125 -1.421875 17.546875 -0.640625 
Q 12.796875 0.140625 7.71875 1.703125 
L 7.71875 11.625 
Q 12.109375 9.234375 16.796875 8.0625 
Q 21.484375 6.890625 26.703125 6.890625 
Q 35.15625 6.890625 40.078125 11.328125 
Q 45.015625 15.765625 45.015625 23.390625 
Q 45.015625 31 40.078125 35.4375 
Q 35.15625 39.890625 26.703125 39.890625 
Q 22.75 39.890625 18.8125 39.015625 
Q 14.890625 38.140625 10.796875 36.28125 
z
" id="DejaVuSans-53"/>
       </defs>
       <use xlink:href="#DejaVuSans-48"/>
       <use x="63.623047" xlink:href="#DejaVuSans-46"/>
       <use x="95.410156" xlink:href="#DejaVuSans-53"/>
      </g>
     </g>
    </g>
    <g id="ytick_3">
     <g id="line2d_10">
      <g>
       <use style="stroke:#000000;stroke-width:0.8;" x="44.203125" xlink:href="#mf06a79d11e" y="267.591191"/>
      </g>
     </g>
     <g id="text_11">
      <!-- 1.0 -->
      <g transform="translate(21.3 271.39041)scale(0.1 -0.1)">
       <use xlink:href="#DejaVuSans-49"/>
       <use x="63.623047" xlink:href="#DejaVuSans-46"/>
       <use x="95.410156" xlink:href="#DejaVuSans-48"/>
      </g>
     </g>
    </g>
    <g id="ytick_4">
     <g id="line2d_11">
      <g>
       <use style="stroke:#000000;stroke-width:0.8;" x="44.203125" xlink:href="#mf06a79d11e" y="210.875749"/>
      </g>
     </g>
     <g id="text_12">
      <!-- 1.5 -->
      <g transform="translate(21.3 214.674968)scale(0.1 -0.1)">
       <use xlink:href="#DejaVuSans-49"/>
       <use x="63.623047" xlink:href="#DejaVuSans-46"/>
       <use x="95.410156" xlink:href="#DejaVuSans-53"/>
      </g>
     </g>
    </g>
    <g id="ytick_5">
     <g id="line2d_12">
      <g>
       <use style="stroke:#000000;stroke-width:0.8;" x="44.203125" xlink:href="#mf06a79d11e" y="154.160308"/>
      </g>
     </g>
     <g id="text_13">
      <!-- 2.0 -->
      <g transform="translate(21.3 157.959527)scale(0.1 -0.1)">
       <use xlink:href="#DejaVuSans-50"/>
       <use x="63.623047" xlink:href="#DejaVuSans-46"/>
       <use x="95.410156" xlink:href="#DejaVuSans-48"/>
      </g>
     </g>
    </g>
    <g id="ytick_6">
     <g id="line2d_13">
      <g>
       <use style="stroke:#000000;stroke-width:0.8;" x="44.203125" xlink:href="#mf06a79d11e" y="97.444866"/>
      </g>
     </g>
     <g id="text_14">
      <!-- 2.5 -->
      <g transform="translate(21.3 101.244085)scale(0.1 -0.1)">
       <use xlink:href="#DejaVuSans-50"/>
       <use x="63.623047" xlink:href="#DejaVuSans-46"/>
       <use x="95.410156" xlink:href="#DejaVuSans-53"/>
      </g>
     </g>
    </g>
    <g id="ytick_7">
     <g id="line2d_14">
      <g>
       <use style="stroke:#000000;stroke-width:0.8;" x="44.203125" xlink:href="#mf06a79d11e" y="40.729425"/>
      </g>
     </g>
     <g id="text_15">
      <!-- 3.0 -->
      <g transform="translate(21.3 44.528644)scale(0.1 -0.1)">
       <use xlink:href="#DejaVuSans-51"/>
       <use x="63.623047" xlink:href="#DejaVuSans-46"/>
       <use x="95.410156" xlink:href="#DejaVuSans-48"/>
      </g>
     </g>
    </g>
    <g id="text_16">
     <!-- Monochromatic Absorbtion Coefficient $cm^{-1}/molecule\cdot cm^{-2}$ -->
     <g transform="translate(15.220313 359.758437)rotate(-90)scale(0.1 -0.1)">
      <defs>
       <path d="M 9.8125 72.90625 
L 24.515625 72.90625 
L 43.109375 23.296875 
L 61.8125 72.90625 
L 76.515625 72.90625 
L 76.515625 0 
L 66.890625 0 
L 66.890625 64.015625 
L 48.09375 14.015625 
L 38.1875 14.015625 
L 19.390625 64.015625 
L 19.390625 0 
L 9.8125 0 
z
" id="DejaVuSans-77"/>
       <path d="M 30.609375 48.390625 
Q 23.390625 48.390625 19.1875 42.75 
Q 14.984375 37.109375 14.984375 27.296875 
Q 14.984375 17.484375 19.15625 11.84375 
Q 23.34375 6.203125 30.609375 6.203125 
Q 37.796875 6.203125 41.984375 11.859375 
Q 46.1875 17.53125 46.1875 27.296875 
Q 46.1875 37.015625 41.984375 42.703125 
Q 37.796875 48.390625 30.609375 48.390625 
z
M 30.609375 56 
Q 42.328125 56 49.015625 48.375 
Q 55.71875 40.765625 55.71875 27.296875 
Q 55.71875 13.875 49.015625 6.21875 
Q 42.328125 -1.421875 30.609375 -1.421875 
Q 18.84375 -1.421875 12.171875 6.21875 
Q 5.515625 13.875 5.515625 27.296875 
Q 5.515625 40.765625 12.171875 48.375 
Q 18.84375 56 30.609375 56 
z
" id="DejaVuSans-111"/>
       <path d="M 48.78125 52.59375 
L 48.78125 44.1875 
Q 44.96875 46.296875 41.140625 47.34375 
Q 37.3125 48.390625 33.40625 48.390625 
Q 24.65625 48.390625 19.8125 42.84375 
Q 14.984375 37.3125 14.984375 27.296875 
Q 14.984375 17.28125 19.8125 11.734375 
Q 24.65625 6.203125 33.40625 6.203125 
Q 37.3125 6.203125 41.140625 7.25 
Q 44.96875 8.296875 48.78125 10.40625 
L 48.78125 2.09375 
Q 45.015625 0.34375 40.984375 -0.53125 
Q 36.96875 -1.421875 32.421875 -1.421875 
Q 20.0625 -1.421875 12.78125 6.34375 
Q 5.515625 14.109375 5.515625 27.296875 
Q 5.515625 40.671875 12.859375 48.328125 
Q 20.21875 56 33.015625 56 
Q 37.15625 56 41.109375 55.140625 
Q 45.0625 54.296875 48.78125 52.59375 
z
" id="DejaVuSans-99"/>
       <path d="M 54.890625 33.015625 
L 54.890625 0 
L 45.90625 0 
L 45.90625 32.71875 
Q 45.90625 40.484375 42.875 44.328125 
Q 39.84375 48.1875 33.796875 48.1875 
Q 26.515625 48.1875 22.3125 43.546875 
Q 18.109375 38.921875 18.109375 30.90625 
L 18.109375 0 
L 9.078125 0 
L 9.078125 75.984375 
L 18.109375 75.984375 
L 18.109375 46.1875 
Q 21.34375 51.125 25.703125 53.5625 
Q 30.078125 56 35.796875 56 
Q 45.21875 56 50.046875 50.171875 
Q 54.890625 44.34375 54.890625 33.015625 
z
" id="DejaVuSans-104"/>
       <path d="M 18.3125 70.21875 
L 18.3125 54.6875 
L 36.8125 54.6875 
L 36.8125 47.703125 
L 18.3125 47.703125 
L 18.3125 18.015625 
Q 18.3125 11.328125 20.140625 9.421875 
Q 21.96875 7.515625 27.59375 7.515625 
L 36.8125 7.515625 
L 36.8125 0 
L 27.59375 0 
Q 17.1875 0 13.234375 3.875 
Q 9.28125 7.765625 9.28125 18.015625 
L 9.28125 47.703125 
L 2.6875 47.703125 
L 2.6875 54.6875 
L 9.28125 54.6875 
L 9.28125 70.21875 
z
" id="DejaVuSans-116"/>
       <path d="M 9.421875 54.6875 
L 18.40625 54.6875 
L 18.40625 0 
L 9.421875 0 
z
M 9.421875 75.984375 
L 18.40625 75.984375 
L 18.40625 64.59375 
L 9.421875 64.59375 
z
" id="DejaVuSans-105"/>
       <path d="M 34.1875 63.1875 
L 20.796875 26.90625 
L 47.609375 26.90625 
z
M 28.609375 72.90625 
L 39.796875 72.90625 
L 67.578125 0 
L 57.328125 0 
L 50.6875 18.703125 
L 17.828125 18.703125 
L 11.1875 0 
L 0.78125 0 
z
" id="DejaVuSans-65"/>
       <path d="M 44.28125 53.078125 
L 44.28125 44.578125 
Q 40.484375 46.53125 36.375 47.5 
Q 32.28125 48.484375 27.875 48.484375 
Q 21.1875 48.484375 17.84375 46.4375 
Q 14.5 44.390625 14.5 40.28125 
Q 14.5 37.15625 16.890625 35.375 
Q 19.28125 33.59375 26.515625 31.984375 
L 29.59375 31.296875 
Q 39.15625 29.25 43.1875 25.515625 
Q 47.21875 21.78125 47.21875 15.09375 
Q 47.21875 7.46875 41.1875 3.015625 
Q 35.15625 -1.421875 24.609375 -1.421875 
Q 20.21875 -1.421875 15.453125 -0.5625 
Q 10.6875 0.296875 5.421875 2 
L 5.421875 11.28125 
Q 10.40625 8.6875 15.234375 7.390625 
Q 20.0625 6.109375 24.8125 6.109375 
Q 31.15625 6.109375 34.5625 8.28125 
Q 37.984375 10.453125 37.984375 14.40625 
Q 37.984375 18.0625 35.515625 20.015625 
Q 33.0625 21.96875 24.703125 23.78125 
L 21.578125 24.515625 
Q 13.234375 26.265625 9.515625 29.90625 
Q 5.8125 33.546875 5.8125 39.890625 
Q 5.8125 47.609375 11.28125 51.796875 
Q 16.75 56 26.8125 56 
Q 31.78125 56 36.171875 55.265625 
Q 40.578125 54.546875 44.28125 53.078125 
z
" id="DejaVuSans-115"/>
       <path d="M 64.40625 67.28125 
L 64.40625 56.890625 
Q 59.421875 61.53125 53.78125 63.8125 
Q 48.140625 66.109375 41.796875 66.109375 
Q 29.296875 66.109375 22.65625 58.46875 
Q 16.015625 50.828125 16.015625 36.375 
Q 16.015625 21.96875 22.65625 14.328125 
Q 29.296875 6.6875 41.796875 6.6875 
Q 48.140625 6.6875 53.78125 8.984375 
Q 59.421875 11.28125 64.40625 15.921875 
L 64.40625 5.609375 
Q 59.234375 2.09375 53.4375 0.328125 
Q 47.65625 -1.421875 41.21875 -1.421875 
Q 24.65625 -1.421875 15.125 8.703125 
Q 5.609375 18.84375 5.609375 36.375 
Q 5.609375 53.953125 15.125 64.078125 
Q 24.65625 74.21875 41.21875 74.21875 
Q 47.75 74.21875 53.53125 72.484375 
Q 59.328125 70.75 64.40625 67.28125 
z
" id="DejaVuSans-67"/>
       <path d="M 37.109375 75.984375 
L 37.109375 68.5 
L 28.515625 68.5 
Q 23.6875 68.5 21.796875 66.546875 
Q 19.921875 64.59375 19.921875 59.515625 
L 19.921875 54.6875 
L 34.71875 54.6875 
L 34.71875 47.703125 
L 19.921875 47.703125 
L 19.921875 0 
L 10.890625 0 
L 10.890625 47.703125 
L 2.296875 47.703125 
L 2.296875 54.6875 
L 10.890625 54.6875 
L 10.890625 58.5 
Q 10.890625 67.625 15.140625 71.796875 
Q 19.390625 75.984375 28.609375 75.984375 
z
" id="DejaVuSans-102"/>
       <path d="M 25.390625 -1.421875 
Q 15.765625 -1.421875 10.171875 4.515625 
Q 4.59375 10.453125 4.59375 20.703125 
Q 4.59375 26.65625 6.515625 32.828125 
Q 8.453125 39.015625 11.53125 43.21875 
Q 16.359375 49.75 22.3125 52.875 
Q 28.265625 56 35.796875 56 
Q 45.125 56 50.859375 50.1875 
Q 56.59375 44.390625 56.59375 35.015625 
Q 56.59375 28.515625 54.6875 22.0625 
Q 52.78125 15.625 49.703125 11.375 
Q 44.921875 4.828125 38.96875 1.703125 
Q 33.015625 -1.421875 25.390625 -1.421875 
z
M 13.921875 21 
Q 13.921875 13.578125 17.015625 9.890625 
Q 20.125 6.203125 26.421875 6.203125 
Q 35.453125 6.203125 41.375 14.078125 
Q 47.3125 21.96875 47.3125 34.078125 
Q 47.3125 41.15625 44.140625 44.765625 
Q 40.96875 48.390625 34.8125 48.390625 
Q 29.734375 48.390625 25.78125 46.015625 
Q 21.828125 43.65625 18.703125 38.8125 
Q 16.40625 35.203125 15.15625 30.5625 
Q 13.921875 25.921875 13.921875 21 
z
" id="DejaVuSans-Oblique-111"/>
       <path d="M 18.3125 75.984375 
L 27.296875 75.984375 
L 12.5 0 
L 3.515625 0 
z
" id="DejaVuSans-Oblique-108"/>
       <path d="M 48.09375 32.234375 
Q 48.25 33.015625 48.3125 33.84375 
Q 48.390625 34.671875 48.390625 35.5 
Q 48.390625 41.453125 44.890625 44.921875 
Q 41.40625 48.390625 35.40625 48.390625 
Q 28.71875 48.390625 23.578125 44.15625 
Q 18.453125 39.9375 15.828125 32.171875 
z
M 55.90625 25.203125 
L 14.109375 25.203125 
Q 13.8125 23.34375 13.71875 22.265625 
Q 13.625 21.1875 13.625 20.40625 
Q 13.625 13.625 17.796875 9.90625 
Q 21.96875 6.203125 29.59375 6.203125 
Q 35.453125 6.203125 40.671875 7.515625 
Q 45.90625 8.84375 50.390625 11.375 
L 48.6875 2.484375 
Q 43.84375 0.53125 38.6875 -0.4375 
Q 33.546875 -1.421875 28.21875 -1.421875 
Q 16.84375 -1.421875 10.71875 4.015625 
Q 4.59375 9.46875 4.59375 19.484375 
Q 4.59375 28.03125 7.640625 35.375 
Q 10.6875 42.71875 16.609375 48.484375 
Q 20.40625 52.09375 25.65625 54.046875 
Q 30.90625 56 36.8125 56 
Q 46.09375 56 51.578125 50.4375 
Q 57.078125 44.875 57.078125 35.5 
Q 57.078125 33.25 56.78125 30.6875 
Q 56.5 28.125 55.90625 25.203125 
z
" id="DejaVuSans-Oblique-101"/>
       <path d="M 6.6875 21.6875 
L 13.09375 54.6875 
L 22.125 54.6875 
L 15.71875 22.015625 
Q 15.234375 19.625 15.015625 17.921875 
Q 14.796875 16.21875 14.796875 15.09375 
Q 14.796875 10.9375 17.328125 8.65625 
Q 19.875 6.390625 24.515625 6.390625 
Q 31.734375 6.390625 37 11.265625 
Q 42.28125 16.15625 43.890625 24.421875 
L 49.90625 54.6875 
L 58.890625 54.6875 
L 48.296875 0 
L 39.3125 0 
L 41.109375 8.59375 
Q 37.3125 3.8125 32.0625 1.1875 
Q 26.8125 -1.421875 20.90625 -1.421875 
Q 13.71875 -1.421875 9.71875 2.515625 
Q 5.71875 6.453125 5.71875 13.484375 
Q 5.71875 14.9375 5.953125 17.140625 
Q 6.203125 19.34375 6.6875 21.6875 
z
" id="DejaVuSans-Oblique-117"/>
       <path d="M 10.6875 40.921875 
L 21 40.921875 
L 21 28.515625 
L 10.6875 28.515625 
z
" id="DejaVuSans-8901"/>
      </defs>
      <use transform="translate(0 0.765625)" xlink:href="#DejaVuSans-77"/>
      <use transform="translate(86.279297 0.765625)" xlink:href="#DejaVuSans-111"/>
      <use transform="translate(147.460938 0.765625)" xlink:href="#DejaVuSans-110"/>
      <use transform="translate(210.839844 0.765625)" xlink:href="#DejaVuSans-111"/>
      <use transform="translate(272.021484 0.765625)" xlink:href="#DejaVuSans-99"/>
      <use transform="translate(327.001953 0.765625)" xlink:href="#DejaVuSans-104"/>
      <use transform="translate(390.380859 0.765625)" xlink:href="#DejaVuSans-114"/>
      <use transform="translate(431.494141 0.765625)" xlink:href="#DejaVuSans-111"/>
      <use transform="translate(492.675781 0.765625)" xlink:href="#DejaVuSans-109"/>
      <use transform="translate(590.087891 0.765625)" xlink:href="#DejaVuSans-97"/>
      <use transform="translate(651.367188 0.765625)" xlink:href="#DejaVuSans-116"/>
      <use transform="translate(690.576172 0.765625)" xlink:href="#DejaVuSans-105"/>
      <use transform="translate(718.359375 0.765625)" xlink:href="#DejaVuSans-99"/>
      <use transform="translate(773.339844 0.765625)" xlink:href="#DejaVuSans-32"/>
      <use transform="translate(805.126953 0.765625)" xlink:href="#DejaVuSans-65"/>
      <use transform="translate(873.535156 0.765625)" xlink:href="#DejaVuSans-98"/>
      <use transform="translate(937.011719 0.765625)" xlink:href="#DejaVuSans-115"/>
      <use transform="translate(989.111328 0.765625)" xlink:href="#DejaVuSans-111"/>
      <use transform="translate(1050.292969 0.765625)" xlink:href="#DejaVuSans-114"/>
      <use transform="translate(1091.40625 0.765625)" xlink:href="#DejaVuSans-98"/>
      <use transform="translate(1154.882812 0.765625)" xlink:href="#DejaVuSans-116"/>
      <use transform="translate(1194.091797 0.765625)" xlink:href="#DejaVuSans-105"/>
      <use transform="translate(1221.875 0.765625)" xlink:href="#DejaVuSans-111"/>
      <use transform="translate(1283.056641 0.765625)" xlink:href="#DejaVuSans-110"/>
      <use transform="translate(1346.435547 0.765625)" xlink:href="#DejaVuSans-32"/>
      <use transform="translate(1378.222656 0.765625)" xlink:href="#DejaVuSans-67"/>
      <use transform="translate(1448.046875 0.765625)" xlink:href="#DejaVuSans-111"/>
      <use transform="translate(1509.228516 0.765625)" xlink:href="#DejaVuSans-101"/>
      <use transform="translate(1570.751953 0.765625)" xlink:href="#DejaVuSans-102"/>
      <use transform="translate(1605.957031 0.765625)" xlink:href="#DejaVuSans-102"/>
      <use transform="translate(1641.162109 0.765625)" xlink:href="#DejaVuSans-105"/>
      <use transform="translate(1668.945312 0.765625)" xlink:href="#DejaVuSans-99"/>
      <use transform="translate(1723.925781 0.765625)" xlink:href="#DejaVuSans-105"/>
      <use transform="translate(1751.708984 0.765625)" xlink:href="#DejaVuSans-101"/>
      <use transform="translate(1813.232422 0.765625)" xlink:href="#DejaVuSans-110"/>
      <use transform="translate(1876.611328 0.765625)" xlink:href="#DejaVuSans-116"/>
      <use transform="translate(1915.820312 0.765625)" xlink:href="#DejaVuSans-32"/>
      <use transform="translate(1947.607422 0.765625)" xlink:href="#DejaVuSans-Oblique-99"/>
      <use transform="translate(2002.587891 0.765625)" xlink:href="#DejaVuSans-Oblique-109"/>
      <use transform="translate(2104.649896 39.046875)scale(0.7)" xlink:href="#DejaVuSans-8722"/>
      <use transform="translate(2163.30224 39.046875)scale(0.7)" xlink:href="#DejaVuSans-49"/>
      <use transform="translate(2210.572747 0.765625)" xlink:href="#DejaVuSans-47"/>
      <use transform="translate(2244.264154 0.765625)" xlink:href="#DejaVuSans-Oblique-109"/>
      <use transform="translate(2341.676263 0.765625)" xlink:href="#DejaVuSans-Oblique-111"/>
      <use transform="translate(2402.857904 0.765625)" xlink:href="#DejaVuSans-Oblique-108"/>
      <use transform="translate(2430.641107 0.765625)" xlink:href="#DejaVuSans-Oblique-101"/>
      <use transform="translate(2492.164544 0.765625)" xlink:href="#DejaVuSans-Oblique-99"/>
      <use transform="translate(2547.145013 0.765625)" xlink:href="#DejaVuSans-Oblique-117"/>
      <use transform="translate(2610.523919 0.765625)" xlink:href="#DejaVuSans-Oblique-108"/>
      <use transform="translate(2638.307122 0.765625)" xlink:href="#DejaVuSans-Oblique-101"/>
      <use transform="translate(2719.312982 0.765625)" xlink:href="#DejaVuSans-8901"/>
      <use transform="translate(2770.582513 0.765625)" xlink:href="#DejaVuSans-Oblique-99"/>
      <use transform="translate(2825.562982 0.765625)" xlink:href="#DejaVuSans-Oblique-109"/>
      <use transform="translate(2927.624987 39.046875)scale(0.7)" xlink:href="#DejaVuSans-8722"/>
      <use transform="translate(2986.277331 39.046875)scale(0.7)" xlink:href="#DejaVuSans-50"/>
     </g>
    </g>
    <g id="text_17">
     <!-- 1e−27 -->
     <g transform="translate(44.203125 14.798437)scale(0.1 -0.1)">
      <defs>
       <path d="M 8.203125 72.90625 
L 55.078125 72.90625 
L 55.078125 68.703125 
L 28.609375 0 
L 18.3125 0 
L 43.21875 64.59375 
L 8.203125 64.59375 
z
" id="DejaVuSans-55"/>
      </defs>
      <use xlink:href="#DejaVuSans-49"/>
      <use x="63.623047" xlink:href="#DejaVuSans-101"/>
      <use x="125.146484" xlink:href="#DejaVuSans-8722"/>
      <use x="208.935547" xlink:href="#DejaVuSans-50"/>
      <use x="272.558594" xlink:href="#DejaVuSans-55"/>
     </g>
    </g>
   </g>
   <g id="line2d_15">
    <path clip-path="url(#p19238cda16)" d="M 118.141567 371.582697 
L 118.662899 370.832561 
L 133.397794 74.499811 
L 142.918977 357.808309 
L 155.937842 373.029753 
L 164.734495 371.344863 
L 182.623902 62.193245 
L 184.609694 176.553854 
L 194.09207 362.119857 
L 211.93162 371.916792 
L 227.020593 316.770459 
L 232.55954 62.767599 
L 233.124859 75.261687 
L 259.733814 372.36472 
L 270.151203 363.867685 
L 273.035628 355.981082 
L 283.203946 75.456018 
L 308.142017 373.025284 
L 313.823652 371.814935 
L 314.001089 371.658864 
L 334.55636 35.094801 
L 355.488389 372.327771 
L 357.15699 373.700731 
L 358.569817 372.85785 
L 386.615948 62.792305 
L 398.029294 362.38631 
L 403.856952 364.76608 
L 406.779495 370.22954 
L 439.382059 156.557205 
L 441.445789 223.598074 
L 449.862023 353.266714 
L 457.010112 371.514696 
L 485.737293 352.328474 
L 492.853749 153.940674 
L 496.584631 307.037158 
L 507.849383 373.167833 
L 530.903371 372.561668 
L 544.024342 306.89627 
L 547.030223 381.022074 
L 559.297599 380.692217 
" style="fill:none;stroke:#1f77b4;stroke-linecap:square;stroke-opacity:0.6;stroke-width:1.5;"/>
   </g>
   <g id="line2d_16">
    <path clip-path="url(#p19238cda16)" d="M 69.566761 380.193117 
L 83.315227 379.797605 
L 92.24412 379.332749 
L 98.534931 378.793487 
L 103.151574 378.185364 
L 106.702839 377.504084 
L 109.54385 376.741022 
L 111.877538 375.889331 
L 113.805367 374.957925 
L 115.479534 373.90761 
L 116.950772 372.723295 
L 118.269813 371.372734 
L 119.436657 369.86608 
L 120.552769 368.05138 
L 121.567416 365.971518 
L 122.531331 363.479552 
L 123.444513 360.487116 
L 124.306963 356.888998 
L 125.11868 352.562394 
L 125.930398 346.973263 
L 126.691383 340.133976 
L 127.452368 331.107261 
L 128.162621 319.886561 
L 128.872874 304.823904 
L 129.532394 286.009554 
L 130.191915 260.838068 
L 130.902168 224.608801 
L 131.764618 167.486717 
L 132.829997 98.061788 
L 133.185123 85.957527 
L 133.438785 83.215743 
L 133.54025 83.642153 
L 133.692447 85.877248 
L 133.946108 93.602678 
L 134.351967 114.442526 
L 135.214417 174.544554 
L 136.178332 235.7184 
L 136.939317 271.021202 
L 137.700302 296.377876 
L 138.461287 314.511808 
L 139.222272 327.640974 
L 140.03399 337.871491 
L 140.845707 345.426372 
L 141.708157 351.431408 
L 142.570607 355.97665 
L 143.483789 359.662717 
L 144.447704 362.652508 
L 145.462351 365.078197 
L 146.52773 367.045609 
L 147.643842 368.638645 
L 148.810686 369.923244 
L 150.078994 370.98774 
L 151.448768 371.842434 
L 152.920006 372.497319 
L 154.543441 372.970023 
L 156.268341 373.235466 
L 158.043973 373.284381 
L 159.819605 373.114328 
L 161.544505 372.726913 
L 163.16794 372.131279 
L 164.639178 371.353969 
L 165.958219 370.413094 
L 167.175795 369.279988 
L 168.342639 367.882296 
L 169.408018 366.25473 
L 170.422665 364.290327 
L 171.38658 361.92425 
L 172.299762 359.078599 
L 173.162212 355.661441 
L 174.024662 351.276044 
L 174.836379 345.929114 
L 175.597364 339.424578 
L 176.35835 330.900935 
L 177.068602 320.389819 
L 177.778855 306.394834 
L 178.438376 289.038539 
L 179.097896 265.908248 
L 179.808149 232.471335 
L 180.569134 185.178342 
L 182.192569 78.461919 
L 182.496963 70.823092 
L 182.649161 69.786326 
L 182.750625 70.222593 
L 182.902822 72.496269 
L 183.156484 80.352321 
L 183.562343 101.589172 
L 184.424793 163.274856 
L 185.43944 229.590225 
L 186.200425 265.792439 
L 186.96141 291.912227 
L 187.722395 310.680113 
L 188.48338 324.327516 
L 189.295098 335.004424 
L 190.106815 342.918055 
L 190.969265 349.229799 
L 191.882447 354.267615 
L 192.79563 358.11086 
L 193.759544 361.241572 
L 194.774191 363.792959 
L 195.83957 365.872273 
L 196.955682 367.56499 
L 198.122526 368.938629 
L 199.390835 370.08613 
L 200.760608 371.017995 
L 202.231846 371.744836 
L 203.804549 372.273974 
L 205.478716 372.606229 
L 207.254348 372.732078 
L 209.02998 372.638056 
L 210.75488 372.329016 
L 212.378315 371.817358 
L 213.900286 371.103687 
L 215.270059 370.218557 
L 216.538368 369.135481 
L 217.705212 367.848234 
L 218.821323 366.27456 
L 219.83597 364.460783 
L 220.799885 362.289684 
L 221.713067 359.6978 
L 222.626249 356.40653 
L 223.488699 352.426712 
L 224.300417 347.622487 
L 225.112134 341.40051 
L 225.873119 333.776674 
L 226.634104 323.713367 
L 227.344357 311.219413 
L 228.05461 294.495684 
L 228.714131 273.710419 
L 229.424383 243.667073 
L 230.134636 203.740599 
L 231.149283 131.604851 
L 231.961001 79.686409 
L 232.316127 67.528544 
L 232.519057 64.955492 
L 232.569789 64.845671 
L 232.620521 64.953698 
L 232.772718 66.566313 
L 233.02638 73.367558 
L 233.381506 90.287157 
L 234.041027 135.36065 
L 235.309336 222.127671 
L 236.121053 261.918473 
L 236.882038 288.699908 
L 237.643024 308.021801 
L 238.404009 322.114465 
L 239.215726 333.165663 
L 240.027444 341.372385 
L 240.889894 347.928455 
L 241.803076 353.169079 
L 242.716258 357.172763 
L 243.680173 360.438973 
L 244.69482 363.105242 
L 245.760199 365.282592 
L 246.876311 367.059727 
L 248.043154 368.506922 
L 249.311463 369.721982 
L 250.681236 370.716518 
L 252.152474 371.502628 
L 253.725177 372.089541 
L 255.399345 372.480561 
L 257.174977 372.669605 
L 259.001341 372.640286 
L 260.776973 372.391765 
L 262.451141 371.937654 
L 264.023843 371.280157 
L 265.444349 370.446912 
L 266.76339 369.41265 
L 267.980966 368.168543 
L 269.097078 366.708262 
L 270.111725 365.032265 
L 270.162457 364.03337 
L 270.21319 364.842597 
L 271.227837 362.677209 
L 272.191751 360.062955 
L 273.104933 356.910803 
L 273.967383 353.11552 
L 274.779101 348.555697 
L 275.590818 342.681695 
L 276.351804 335.526663 
L 277.112789 326.143109 
L 277.823042 314.572322 
L 278.533294 299.189864 
L 279.243547 278.492328 
L 279.9538 250.537933 
L 280.664053 213.363654 
L 281.577235 152.166803 
L 282.591882 86.301958 
L 282.997741 72.360371 
L 283.251403 69.72087 
L 283.352867 70.133079 
L 283.505064 72.278568 
L 283.758726 79.702813 
L 284.164585 99.878135 
L 284.976302 155.747945 
L 286.041682 224.934812 
L 286.853399 263.477417 
L 287.614384 289.555793 
L 288.375369 308.465021 
L 289.136355 322.317905 
L 289.948072 333.223359 
L 290.75979 341.349426 
L 291.62224 347.860313 
L 292.535422 353.078882 
L 293.448604 357.075477 
L 294.412519 360.343331 
L 295.427166 363.017012 
L 296.492545 365.205627 
L 297.608656 366.996706 
L 298.7755 368.459868 
L 300.043809 369.693405 
L 301.413582 370.709087 
L 302.88482 371.519504 
L 304.457523 372.134822 
L 306.182423 372.569505 
L 308.008787 372.798061 
L 309.885884 372.80696 
L 311.712249 372.59596 
L 313.437148 372.17852 
L 315.060583 371.556598 
L 316.531822 370.754223 
L 317.850863 369.78782 
L 319.068439 368.626972 
L 320.235283 367.197495 
L 321.300662 365.53528 
L 322.315309 363.531954 
L 323.279224 361.123026 
L 324.192406 358.231675 
L 325.054856 354.768127 
L 325.917306 350.336808 
L 326.729023 344.95444 
L 327.490008 338.436703 
L 328.250993 329.944069 
L 328.961246 319.54381 
L 329.671499 305.814886 
L 330.381752 287.467737 
L 331.092005 262.811866 
L 331.802258 230.012803 
L 332.613975 181.690013 
L 333.983749 98.215937 
L 334.338875 87.55559 
L 334.541804 85.307393 
L 334.592537 85.260863 
L 334.643269 85.355615 
L 334.795466 86.766367 
L 335.049128 92.724046 
L 335.404254 107.617193 
L 336.013042 144.428393 
L 337.48428 235.332946 
L 338.295998 270.700911 
L 339.056983 294.747821 
L 339.817968 312.28767 
L 340.629686 325.945674 
L 341.441403 335.986012 
L 342.303853 343.918719 
L 343.166303 349.886082 
L 344.079485 354.699117 
L 345.0434 358.586277 
L 346.007315 361.593373 
L 347.021961 364.067631 
L 348.087341 366.103816 
L 349.203452 367.778699 
L 350.421029 369.206495 
L 351.689337 370.360207 
L 353.109843 371.346691 
L 354.631813 372.129368 
L 356.305981 372.735683 
L 358.132345 373.153123 
L 360.060174 373.360119 
L 361.988003 373.3469 
L 363.915833 373.110287 
L 365.691465 372.67142 
L 367.3149 372.046804 
L 368.786138 371.248446 
L 370.155911 370.248145 
L 371.373487 369.086576 
L 372.540331 367.655564 
L 373.605711 365.989166 
L 374.620358 363.976581 
L 375.584272 361.550207 
L 376.497454 358.6292 
L 377.359904 355.118687 
L 378.222354 350.611298 
L 379.034072 345.116196 
L 379.795057 338.438076 
L 380.556042 329.707754 
L 381.266295 318.989323 
L 381.976548 304.826293 
L 382.686801 285.936655 
L 383.397053 260.752124 
L 384.158039 225.244969 
L 385.324883 157.514216 
L 386.035135 122.676584 
L 386.390262 113.327396 
L 386.643924 111.17602 
L 386.745388 111.505326 
L 386.897585 113.224572 
L 387.151247 119.19071 
L 387.557106 135.515849 
L 388.267359 175.469291 
L 389.535667 245.178973 
L 390.347385 277.579576 
L 391.10837 299.784678 
L 391.869355 316.064751 
L 392.681073 328.78183 
L 393.49279 338.141464 
L 394.35524 345.527201 
L 395.21769 351.057102 
L 396.130872 355.470895 
L 397.044055 358.799481 
L 397.957237 361.302687 
L 398.819687 363.050341 
L 399.631404 364.207115 
L 400.290925 364.802777 
L 400.899713 365.062669 
L 401.407036 365.052868 
L 401.965092 364.807227 
L 402.929007 364.045855 
L 403.43633 363.805184 
L 403.791457 363.872815 
L 404.146583 364.206609 
L 404.603174 364.962033 
L 405.516356 367.059422 
L 406.581736 369.294751 
L 407.444185 370.60195 
L 408.357368 371.582992 
L 409.372015 372.338842 
L 410.538859 372.922267 
L 411.908632 373.349439 
L 413.481335 373.601581 
L 415.206234 373.653552 
L 417.032599 373.482977 
L 418.808231 373.089805 
L 420.431666 372.504553 
L 421.902904 371.74346 
L 423.272677 370.781 
L 424.490254 369.656371 
L 425.606365 368.331998 
L 426.671745 366.721264 
L 427.686392 364.767959 
L 428.650306 362.403378 
L 429.563488 359.544834 
L 430.425938 356.094749 
L 431.237656 351.941044 
L 432.049373 346.581788 
L 432.810358 340.04927 
L 433.571344 331.489034 
L 434.281596 320.967368 
L 434.991849 307.079573 
L 435.702102 288.654968 
L 436.412355 264.414527 
L 437.224073 228.79897 
L 438.847508 155.029248 
L 439.202634 148.122679 
L 439.354831 147.093976 
L 439.405563 147.119754 
L 439.507028 147.384726 
L 439.659225 148.793309 
L 439.912887 153.705855 
L 440.318746 167.218925 
L 441.028998 200.632407 
L 442.348039 262.031032 
L 443.159757 289.542309 
L 443.920742 308.455994 
L 444.681727 322.284818 
L 445.442713 332.372346 
L 446.203698 339.691514 
L 446.913951 344.601173 
L 447.624203 348.01881 
L 448.283724 350.124365 
L 449.095442 351.882747 
L 449.805694 353.53245 
L 450.262285 355.167018 
L 451.175468 358.857944 
L 452.393044 363.550908 
L 453.306226 366.18046 
L 454.219408 368.14267 
L 455.183323 369.699466 
L 456.248702 370.999044 
L 457.415546 372.074737 
L 458.734587 372.987516 
L 460.205825 373.737483 
L 461.879993 374.342471 
L 463.757089 374.78567 
L 465.837116 375.047416 
L 468.018607 375.097765 
L 470.149365 374.929975 
L 472.178659 374.548078 
L 474.005023 373.976243 
L 475.577726 373.258151 
L 476.998232 372.369945 
L 478.26654 371.318882 
L 479.433384 370.062409 
L 480.498764 368.58932 
L 481.513411 366.796578 
L 482.477325 364.616977 
L 483.390507 361.969275 
L 484.252957 358.757171 
L 485.064675 354.869698 
L 485.876392 349.827696 
L 486.637378 343.652414 
L 487.398363 335.530211 
L 488.108616 325.531436 
L 488.818868 312.365902 
L 489.529121 295.072261 
L 490.290106 271.084662 
L 491.507683 223.932098 
L 492.217936 200.667399 
L 492.623794 193.518248 
L 492.826724 192.272725 
L 493.080385 193.255434 
L 493.334047 196.574057 
L 493.689174 204.946038 
L 494.297962 226.129389 
L 496.022862 289.527413 
L 496.834579 310.473315 
L 497.646297 325.856156 
L 498.458014 337.097704 
L 499.269732 345.394048 
L 500.132182 351.947334 
L 500.994631 356.865639 
L 501.907814 360.819972 
L 502.871728 364.002934 
L 503.835643 366.45817 
L 504.85029 368.474403 
L 505.966401 370.2021 
L 507.133245 371.607303 
L 508.401554 372.79477 
L 509.82206 373.81709 
L 511.394762 374.672084 
L 513.170394 375.382351 
L 515.199688 375.950995 
L 517.482644 376.358085 
L 520.019261 376.580855 
L 522.606611 376.586686 
L 525.092496 376.373131 
L 527.324719 375.960049 
L 529.252548 375.378744 
L 530.875983 374.665597 
L 532.296489 373.807779 
L 533.564798 372.786217 
L 534.731641 371.552092 
L 535.797021 370.086004 
L 536.760935 368.376787 
L 537.674118 366.298914 
L 538.536567 363.776978 
L 539.348285 360.724703 
L 540.160003 356.768178 
L 540.920988 351.9292 
L 541.681973 345.581644 
L 542.442958 337.163186 
L 543.153211 326.798889 
L 543.914196 312.269157 
L 544.776646 291.087564 
L 546.400081 249.454019 
L 546.80594 244.539644 
L 547.008869 243.687669 
L 547.161066 381.022074 
L 576.839489 381.022074 
L 576.839489 381.022074 
" style="fill:none;stroke:#000000;stroke-linecap:square;stroke-width:1.5;"/>
   </g>
   <g id="line2d_17">
    <defs>
     <path d="M -3 3 
L 3 -3 
M -3 -3 
L 3 3 
" id="m9605dc39cb" style="stroke:#800080;"/>
    </defs>
    <g clip-path="url(#p19238cda16)">
     <use style="fill:#800080;stroke:#800080;" x="133.397794" xlink:href="#m9605dc39cb" y="312.657281"/>
     <use style="fill:#800080;stroke:#800080;" x="182.623902" xlink:href="#m9605dc39cb" y="308.789288"/>
     <use style="fill:#800080;stroke:#800080;" x="232.55954" xlink:href="#m9605dc39cb" y="306.66813"/>
     <use style="fill:#800080;stroke:#800080;" x="283.203946" xlink:href="#m9605dc39cb" y="306.66813"/>
     <use style="fill:#800080;stroke:#800080;" x="334.55636" xlink:href="#m9605dc39cb" y="309.072865"/>
     <use style="fill:#800080;stroke:#800080;" x="386.615948" xlink:href="#m9605dc39cb" y="314.052481"/>
     <use style="fill:#800080;stroke:#800080;" x="439.382059" xlink:href="#m9605dc39cb" y="321.641007"/>
     <use style="fill:#800080;stroke:#800080;" x="492.853749" xlink:href="#m9605dc39cb" y="331.725012"/>
     <use style="fill:#800080;stroke:#800080;" x="547.030223" xlink:href="#m9605dc39cb" y="343.986891"/>
    </g>
   </g>
   <g id="patch_3">
    <path d="M 44.203125 398.318437 
L 44.203125 17.798437 
" style="fill:none;stroke:#000000;stroke-linecap:square;stroke-linejoin:miter;stroke-width:0.8;"/>
   </g>
   <g id="patch_4">
    <path d="M 602.203125 398.318437 
L 602.203125 17.798437 
" style="fill:none;stroke:#000000;stroke-linecap:square;stroke-linejoin:miter;stroke-width:0.8;"/>
   </g>
   <g id="patch_5">
    <path d="M 44.203125 398.318437 
L 602.203125 398.318437 
" style="fill:none;stroke:#000000;stroke-linecap:square;stroke-linejoin:miter;stroke-width:0.8;"/>
   </g>
   <g id="patch_6">
    <path d="M 44.203125 17.798437 
L 602.203125 17.798437 
" style="fill:none;stroke:#000000;stroke-linecap:square;stroke-linejoin:miter;stroke-width:0.8;"/>
   </g>
   <g id="legend_1">
    <g id="patch_7">
     <path d="M 349.79375 69.832812 
L 595.203125 69.832812 
Q 597.203125 69.832812 597.203125 67.832812 
L 597.203125 24.798437 
Q 597.203125 22.798437 595.203125 22.798437 
L 349.79375 22.798437 
Q 347.79375 22.798437 347.79375 24.798437 
L 347.79375 67.832812 
Q 347.79375 69.832812 349.79375 69.832812 
z
" style="fill:#ffffff;opacity:0.8;stroke:#cccccc;stroke-linejoin:miter;"/>
    </g>
    <g id="line2d_18">
     <path d="M 351.79375 30.896875 
L 371.79375 30.896875 
" style="fill:none;stroke:#1f77b4;stroke-linecap:square;stroke-opacity:0.6;stroke-width:1.5;"/>
    </g>
    <g id="line2d_19"/>
    <g id="text_18">
     <!-- Lorentzian broadening -->
     <g transform="translate(379.79375 34.396875)scale(0.1 -0.1)">
      <defs>
       <path d="M 9.8125 72.90625 
L 19.671875 72.90625 
L 19.671875 8.296875 
L 55.171875 8.296875 
L 55.171875 0 
L 9.8125 0 
z
" id="DejaVuSans-76"/>
       <path d="M 5.515625 54.6875 
L 48.1875 54.6875 
L 48.1875 46.484375 
L 14.40625 7.171875 
L 48.1875 7.171875 
L 48.1875 0 
L 4.296875 0 
L 4.296875 8.203125 
L 38.09375 47.515625 
L 5.515625 47.515625 
z
" id="DejaVuSans-122"/>
       <path d="M 45.40625 46.390625 
L 45.40625 75.984375 
L 54.390625 75.984375 
L 54.390625 0 
L 45.40625 0 
L 45.40625 8.203125 
Q 42.578125 3.328125 38.25 0.953125 
Q 33.9375 -1.421875 27.875 -1.421875 
Q 17.96875 -1.421875 11.734375 6.484375 
Q 5.515625 14.40625 5.515625 27.296875 
Q 5.515625 40.1875 11.734375 48.09375 
Q 17.96875 56 27.875 56 
Q 33.9375 56 38.25 53.625 
Q 42.578125 51.265625 45.40625 46.390625 
z
M 14.796875 27.296875 
Q 14.796875 17.390625 18.875 11.75 
Q 22.953125 6.109375 30.078125 6.109375 
Q 37.203125 6.109375 41.296875 11.75 
Q 45.40625 17.390625 45.40625 27.296875 
Q 45.40625 37.203125 41.296875 42.84375 
Q 37.203125 48.484375 30.078125 48.484375 
Q 22.953125 48.484375 18.875 42.84375 
Q 14.796875 37.203125 14.796875 27.296875 
z
" id="DejaVuSans-100"/>
       <path d="M 45.40625 27.984375 
Q 45.40625 37.75 41.375 43.109375 
Q 37.359375 48.484375 30.078125 48.484375 
Q 22.859375 48.484375 18.828125 43.109375 
Q 14.796875 37.75 14.796875 27.984375 
Q 14.796875 18.265625 18.828125 12.890625 
Q 22.859375 7.515625 30.078125 7.515625 
Q 37.359375 7.515625 41.375 12.890625 
Q 45.40625 18.265625 45.40625 27.984375 
z
M 54.390625 6.78125 
Q 54.390625 -7.171875 48.1875 -13.984375 
Q 42 -20.796875 29.203125 -20.796875 
Q 24.46875 -20.796875 20.265625 -20.09375 
Q 16.0625 -19.390625 12.109375 -17.921875 
L 12.109375 -9.1875 
Q 16.0625 -11.328125 19.921875 -12.34375 
Q 23.78125 -13.375 27.78125 -13.375 
Q 36.625 -13.375 41.015625 -8.765625 
Q 45.40625 -4.15625 45.40625 5.171875 
L 45.40625 9.625 
Q 42.625 4.78125 38.28125 2.390625 
Q 33.9375 0 27.875 0 
Q 17.828125 0 11.671875 7.65625 
Q 5.515625 15.328125 5.515625 27.984375 
Q 5.515625 40.671875 11.671875 48.328125 
Q 17.828125 56 27.875 56 
Q 33.9375 56 38.28125 53.609375 
Q 42.625 51.21875 45.40625 46.390625 
L 45.40625 54.6875 
L 54.390625 54.6875 
z
" id="DejaVuSans-103"/>
      </defs>
      <use xlink:href="#DejaVuSans-76"/>
      <use x="53.962891" xlink:href="#DejaVuSans-111"/>
      <use x="115.144531" xlink:href="#DejaVuSans-114"/>
      <use x="154.007812" xlink:href="#DejaVuSans-101"/>
      <use x="215.53125" xlink:href="#DejaVuSans-110"/>
      <use x="278.910156" xlink:href="#DejaVuSans-116"/>
      <use x="318.119141" xlink:href="#DejaVuSans-122"/>
      <use x="370.609375" xlink:href="#DejaVuSans-105"/>
      <use x="398.392578" xlink:href="#DejaVuSans-97"/>
      <use x="459.671875" xlink:href="#DejaVuSans-110"/>
      <use x="523.050781" xlink:href="#DejaVuSans-32"/>
      <use x="554.837891" xlink:href="#DejaVuSans-98"/>
      <use x="618.314453" xlink:href="#DejaVuSans-114"/>
      <use x="657.177734" xlink:href="#DejaVuSans-111"/>
      <use x="718.359375" xlink:href="#DejaVuSans-97"/>
      <use x="779.638672" xlink:href="#DejaVuSans-100"/>
      <use x="843.115234" xlink:href="#DejaVuSans-101"/>
      <use x="904.638672" xlink:href="#DejaVuSans-110"/>
      <use x="968.017578" xlink:href="#DejaVuSans-105"/>
      <use x="995.800781" xlink:href="#DejaVuSans-110"/>
      <use x="1059.179688" xlink:href="#DejaVuSans-103"/>
     </g>
    </g>
    <g id="line2d_20">
     <path d="M 351.79375 45.575 
L 371.79375 45.575 
" style="fill:none;stroke:#000000;stroke-linecap:square;stroke-width:1.5;"/>
    </g>
    <g id="line2d_21"/>
    <g id="text_19">
     <!-- Incresed Resolution Lorentzian broadening -->
     <g transform="translate(379.79375 49.075)scale(0.1 -0.1)">
      <defs>
       <path d="M 9.8125 72.90625 
L 19.671875 72.90625 
L 19.671875 0 
L 9.8125 0 
z
" id="DejaVuSans-73"/>
       <path d="M 44.390625 34.1875 
Q 47.5625 33.109375 50.5625 29.59375 
Q 53.5625 26.078125 56.59375 19.921875 
L 66.609375 0 
L 56 0 
L 46.6875 18.703125 
Q 43.0625 26.03125 39.671875 28.421875 
Q 36.28125 30.8125 30.421875 30.8125 
L 19.671875 30.8125 
L 19.671875 0 
L 9.8125 0 
L 9.8125 72.90625 
L 32.078125 72.90625 
Q 44.578125 72.90625 50.734375 67.671875 
Q 56.890625 62.453125 56.890625 51.90625 
Q 56.890625 45.015625 53.6875 40.46875 
Q 50.484375 35.9375 44.390625 34.1875 
z
M 19.671875 64.796875 
L 19.671875 38.921875 
L 32.078125 38.921875 
Q 39.203125 38.921875 42.84375 42.21875 
Q 46.484375 45.515625 46.484375 51.90625 
Q 46.484375 58.296875 42.84375 61.546875 
Q 39.203125 64.796875 32.078125 64.796875 
z
" id="DejaVuSans-82"/>
       <path d="M 9.421875 75.984375 
L 18.40625 75.984375 
L 18.40625 0 
L 9.421875 0 
z
" id="DejaVuSans-108"/>
      </defs>
      <use xlink:href="#DejaVuSans-73"/>
      <use x="29.492188" xlink:href="#DejaVuSans-110"/>
      <use x="92.871094" xlink:href="#DejaVuSans-99"/>
      <use x="147.851562" xlink:href="#DejaVuSans-114"/>
      <use x="186.714844" xlink:href="#DejaVuSans-101"/>
      <use x="248.238281" xlink:href="#DejaVuSans-115"/>
      <use x="300.337891" xlink:href="#DejaVuSans-101"/>
      <use x="361.861328" xlink:href="#DejaVuSans-100"/>
      <use x="425.337891" xlink:href="#DejaVuSans-32"/>
      <use x="457.125" xlink:href="#DejaVuSans-82"/>
      <use x="522.107422" xlink:href="#DejaVuSans-101"/>
      <use x="583.630859" xlink:href="#DejaVuSans-115"/>
      <use x="635.730469" xlink:href="#DejaVuSans-111"/>
      <use x="696.912109" xlink:href="#DejaVuSans-108"/>
      <use x="724.695312" xlink:href="#DejaVuSans-117"/>
      <use x="788.074219" xlink:href="#DejaVuSans-116"/>
      <use x="827.283203" xlink:href="#DejaVuSans-105"/>
      <use x="855.066406" xlink:href="#DejaVuSans-111"/>
      <use x="916.248047" xlink:href="#DejaVuSans-110"/>
      <use x="979.626953" xlink:href="#DejaVuSans-32"/>
      <use x="1011.414062" xlink:href="#DejaVuSans-76"/>
      <use x="1065.376953" xlink:href="#DejaVuSans-111"/>
      <use x="1126.558594" xlink:href="#DejaVuSans-114"/>
      <use x="1165.421875" xlink:href="#DejaVuSans-101"/>
      <use x="1226.945312" xlink:href="#DejaVuSans-110"/>
      <use x="1290.324219" xlink:href="#DejaVuSans-116"/>
      <use x="1329.533203" xlink:href="#DejaVuSans-122"/>
      <use x="1382.023438" xlink:href="#DejaVuSans-105"/>
      <use x="1409.806641" xlink:href="#DejaVuSans-97"/>
      <use x="1471.085938" xlink:href="#DejaVuSans-110"/>
      <use x="1534.464844" xlink:href="#DejaVuSans-32"/>
      <use x="1566.251953" xlink:href="#DejaVuSans-98"/>
      <use x="1629.728516" xlink:href="#DejaVuSans-114"/>
      <use x="1668.591797" xlink:href="#DejaVuSans-111"/>
      <use x="1729.773438" xlink:href="#DejaVuSans-97"/>
      <use x="1791.052734" xlink:href="#DejaVuSans-100"/>
      <use x="1854.529297" xlink:href="#DejaVuSans-101"/>
      <use x="1916.052734" xlink:href="#DejaVuSans-110"/>
      <use x="1979.431641" xlink:href="#DejaVuSans-105"/>
      <use x="2007.214844" xlink:href="#DejaVuSans-110"/>
      <use x="2070.59375" xlink:href="#DejaVuSans-103"/>
     </g>
    </g>
    <g id="line2d_22"/>
    <g id="line2d_23">
     <g>
      <use style="fill:#800080;stroke:#800080;" x="361.79375" xlink:href="#m9605dc39cb" y="60.253125"/>
     </g>
    </g>
    <g id="text_20">
     <!-- Spectral Line Intesity(SW) -->
     <g transform="translate(379.79375 63.753125)scale(0.1 -0.1)">
      <defs>
       <path d="M 53.515625 70.515625 
L 53.515625 60.890625 
Q 47.90625 63.578125 42.921875 64.890625 
Q 37.9375 66.21875 33.296875 66.21875 
Q 25.25 66.21875 20.875 63.09375 
Q 16.5 59.96875 16.5 54.203125 
Q 16.5 49.359375 19.40625 46.890625 
Q 22.3125 44.4375 30.421875 42.921875 
L 36.375 41.703125 
Q 47.40625 39.59375 52.65625 34.296875 
Q 57.90625 29 57.90625 20.125 
Q 57.90625 9.515625 50.796875 4.046875 
Q 43.703125 -1.421875 29.984375 -1.421875 
Q 24.8125 -1.421875 18.96875 -0.25 
Q 13.140625 0.921875 6.890625 3.21875 
L 6.890625 13.375 
Q 12.890625 10.015625 18.65625 8.296875 
Q 24.421875 6.59375 29.984375 6.59375 
Q 38.421875 6.59375 43.015625 9.90625 
Q 47.609375 13.234375 47.609375 19.390625 
Q 47.609375 24.75 44.3125 27.78125 
Q 41.015625 30.8125 33.5 32.328125 
L 27.484375 33.5 
Q 16.453125 35.6875 11.515625 40.375 
Q 6.59375 45.0625 6.59375 53.421875 
Q 6.59375 63.09375 13.40625 68.65625 
Q 20.21875 74.21875 32.171875 74.21875 
Q 37.3125 74.21875 42.625 73.28125 
Q 47.953125 72.359375 53.515625 70.515625 
z
" id="DejaVuSans-83"/>
       <path d="M 18.109375 8.203125 
L 18.109375 -20.796875 
L 9.078125 -20.796875 
L 9.078125 54.6875 
L 18.109375 54.6875 
L 18.109375 46.390625 
Q 20.953125 51.265625 25.265625 53.625 
Q 29.59375 56 35.59375 56 
Q 45.5625 56 51.78125 48.09375 
Q 58.015625 40.1875 58.015625 27.296875 
Q 58.015625 14.40625 51.78125 6.484375 
Q 45.5625 -1.421875 35.59375 -1.421875 
Q 29.59375 -1.421875 25.265625 0.953125 
Q 20.953125 3.328125 18.109375 8.203125 
z
M 48.6875 27.296875 
Q 48.6875 37.203125 44.609375 42.84375 
Q 40.53125 48.484375 33.40625 48.484375 
Q 26.265625 48.484375 22.1875 42.84375 
Q 18.109375 37.203125 18.109375 27.296875 
Q 18.109375 17.390625 22.1875 11.75 
Q 26.265625 6.109375 33.40625 6.109375 
Q 40.53125 6.109375 44.609375 11.75 
Q 48.6875 17.390625 48.6875 27.296875 
z
" id="DejaVuSans-112"/>
       <path d="M 32.171875 -5.078125 
Q 28.375 -14.84375 24.75 -17.8125 
Q 21.140625 -20.796875 15.09375 -20.796875 
L 7.90625 -20.796875 
L 7.90625 -13.28125 
L 13.1875 -13.28125 
Q 16.890625 -13.28125 18.9375 -11.515625 
Q 21 -9.765625 23.484375 -3.21875 
L 25.09375 0.875 
L 2.984375 54.6875 
L 12.5 54.6875 
L 29.59375 11.921875 
L 46.6875 54.6875 
L 56.203125 54.6875 
z
" id="DejaVuSans-121"/>
       <path d="M 31 75.875 
Q 24.46875 64.65625 21.28125 53.65625 
Q 18.109375 42.671875 18.109375 31.390625 
Q 18.109375 20.125 21.3125 9.0625 
Q 24.515625 -2 31 -13.1875 
L 23.1875 -13.1875 
Q 15.875 -1.703125 12.234375 9.375 
Q 8.59375 20.453125 8.59375 31.390625 
Q 8.59375 42.28125 12.203125 53.3125 
Q 15.828125 64.359375 23.1875 75.875 
z
" id="DejaVuSans-40"/>
       <path d="M 8.015625 75.875 
L 15.828125 75.875 
Q 23.140625 64.359375 26.78125 53.3125 
Q 30.421875 42.28125 30.421875 31.390625 
Q 30.421875 20.453125 26.78125 9.375 
Q 23.140625 -1.703125 15.828125 -13.1875 
L 8.015625 -13.1875 
Q 14.5 -2 17.703125 9.0625 
Q 20.90625 20.125 20.90625 31.390625 
Q 20.90625 42.671875 17.703125 53.65625 
Q 14.5 64.65625 8.015625 75.875 
z
" id="DejaVuSans-41"/>
      </defs>
      <use xlink:href="#DejaVuSans-83"/>
      <use x="63.476562" xlink:href="#DejaVuSans-112"/>
      <use x="126.953125" xlink:href="#DejaVuSans-101"/>
      <use x="188.476562" xlink:href="#DejaVuSans-99"/>
      <use x="243.457031" xlink:href="#DejaVuSans-116"/>
      <use x="282.666016" xlink:href="#DejaVuSans-114"/>
      <use x="323.779297" xlink:href="#DejaVuSans-97"/>
      <use x="385.058594" xlink:href="#DejaVuSans-108"/>
      <use x="412.841797" xlink:href="#DejaVuSans-32"/>
      <use x="444.628906" xlink:href="#DejaVuSans-76"/>
      <use x="500.341797" xlink:href="#DejaVuSans-105"/>
      <use x="528.125" xlink:href="#DejaVuSans-110"/>
      <use x="591.503906" xlink:href="#DejaVuSans-101"/>
      <use x="653.027344" xlink:href="#DejaVuSans-32"/>
      <use x="684.814453" xlink:href="#DejaVuSans-73"/>
      <use x="714.306641" xlink:href="#DejaVuSans-110"/>
      <use x="777.685547" xlink:href="#DejaVuSans-116"/>
      <use x="816.894531" xlink:href="#DejaVuSans-101"/>
      <use x="878.417969" xlink:href="#DejaVuSans-115"/>
      <use x="930.517578" xlink:href="#DejaVuSans-105"/>
      <use x="958.300781" xlink:href="#DejaVuSans-116"/>
      <use x="997.509766" xlink:href="#DejaVuSans-121"/>
      <use x="1056.689453" xlink:href="#DejaVuSans-40"/>
      <use x="1095.703125" xlink:href="#DejaVuSans-83"/>
      <use x="1159.179688" xlink:href="#DejaVuSans-87"/>
      <use x="1258.056641" xlink:href="#DejaVuSans-41"/>
     </g>
    </g>
   </g>
  </g>
 </g>
 <defs>
  <clipPath id="p19238cda16">
   <rect height="380.52" width="558" x="44.203125" y="17.798437"/>
  </clipPath>
 </defs>
</svg>
